<svg width="255" height="115" viewBox="0 0 255 115" fill="none" xmlns="http://www.w3.org/2000/svg">
<g filter="url(#filter0_dddd_420_7833)">
<path d="M56.5608 33.7C56.645 33.728 56.7171 33.7542 56.7957 33.7922C56.8162 33.8021 56.8368 33.812 56.858 33.8222C56.8799 33.8328 56.9019 33.8435 56.9245 33.8545C56.9477 33.8657 56.9709 33.8769 56.9948 33.8885C57.2247 33.9997 57.4541 34.1122 57.6833 34.2249C57.8052 34.2849 57.9271 34.3447 58.049 34.4046C58.0732 34.4165 58.0974 34.4284 58.1224 34.4406C58.3308 34.5429 58.5395 34.6447 58.7483 34.7463C59.0468 34.8916 59.3451 35.0373 59.6433 35.1833C59.9538 35.3353 60.2643 35.4872 60.5751 35.6387C60.8962 35.7952 61.2172 35.952 61.5381 36.109C61.819 36.2463 62.0999 36.3835 62.3809 36.5205C62.7118 36.6818 63.0425 36.8436 63.3732 37.0055C63.6794 37.1554 63.9857 37.305 64.2922 37.4544C64.5957 37.6024 64.899 37.7506 65.2024 37.899C65.4832 38.0363 65.7641 38.1735 66.0451 38.3105C66.376 38.4718 66.7068 38.6336 67.0374 38.7955C67.3436 38.9454 67.65 39.095 67.9564 39.2444C68.2599 39.3924 68.5633 39.5406 68.8666 39.689C69.1648 39.8348 69.4632 39.9805 69.7617 40.126C69.9763 40.2306 70.1907 40.3354 70.4051 40.4405C70.4272 40.4513 70.4493 40.4621 70.4721 40.4733C70.5794 40.5259 70.6867 40.5785 70.7939 40.6311C70.9905 40.7275 71.1872 40.8231 71.3859 40.915C71.4892 40.963 71.4892 40.963 71.5125 40.9863C71.5145 41.0184 71.5151 41.0506 71.5151 41.0827C71.5151 41.1037 71.5152 41.1248 71.5152 41.1464C71.5152 41.1699 71.5151 41.1933 71.5151 41.2174C71.5151 41.2422 71.5151 41.2669 71.5151 41.2924C71.5152 41.3617 71.5151 41.4309 71.515 41.5002C71.515 41.5753 71.515 41.6505 71.5151 41.7256C71.5151 41.8575 71.5151 41.9893 71.515 42.1212C71.5148 42.3173 71.5148 42.5134 71.5149 42.7095C71.5149 43.0393 71.5148 43.3692 71.5147 43.699C71.5146 44.0257 71.5145 44.3524 71.5145 44.6791C71.5145 44.6994 71.5145 44.7197 71.5145 44.7406C71.5145 44.8437 71.5144 44.9467 71.5144 45.0497C71.5144 45.7801 71.5143 46.5105 71.5141 47.2409C71.5139 47.9507 71.5137 48.6604 71.5136 49.3701C71.5136 49.392 71.5136 49.4139 71.5136 49.4364C71.5136 49.6559 71.5136 49.8755 71.5135 50.0951C71.5135 50.5424 71.5134 50.9897 71.5134 51.437C71.5134 51.4575 71.5134 51.4781 71.5133 51.4993C71.5132 52.8735 71.5128 54.2478 71.5125 55.6221C71.5254 55.6263 71.5384 55.6306 71.5518 55.635C71.5688 55.6407 71.5859 55.6463 71.6034 55.6522C71.6288 55.6605 71.6288 55.6605 71.6546 55.6691C72.4518 55.9405 73.2201 56.4137 73.85 56.9698C73.8673 56.9848 73.8846 56.9998 73.9025 57.0152C74.143 57.2266 74.3703 57.4532 74.566 57.7069C74.5825 57.7275 74.599 57.7481 74.6161 57.7694C75.8492 59.3189 76.0723 61.3851 76.0111 63.2993C76.0105 63.3222 76.0098 63.3451 76.0092 63.3686C75.9989 63.6425 75.9311 63.8863 75.844 64.1442C75.8385 64.1607 75.8329 64.1772 75.8272 64.1941C75.6454 64.7348 75.4246 65.2586 75.1767 65.7723C75.1707 65.7848 75.1647 65.7973 75.1585 65.8102C74.9881 66.1636 74.8077 66.508 74.6049 66.8443C74.576 66.8928 74.5474 66.9414 74.5192 66.9904C74.3984 67.1994 74.2698 67.4019 74.1351 67.6022C74.1026 67.6506 74.0702 67.6992 74.0379 67.7477C73.8709 67.9975 73.6992 68.2437 73.5183 68.4837C73.5028 68.5042 73.5028 68.5042 73.487 68.5252C73.3013 68.771 73.1136 69.0146 72.9129 69.2484C72.8637 69.3061 72.8158 69.3645 72.7681 69.4234C72.5785 69.6559 72.3792 69.8794 72.1747 70.0987C72.1443 70.1314 72.1143 70.1643 72.0843 70.1973C71.9757 70.317 71.8644 70.4332 71.7493 70.5468C71.7092 70.5875 71.6717 70.6288 71.6349 70.6724C71.4765 70.8572 71.2988 71.0318 71.1128 71.1886C71.054 71.241 70.9992 71.2969 70.9439 71.3529C70.864 71.4337 70.7832 71.5114 70.6966 71.5851C70.6302 71.6431 70.5661 71.7034 70.5016 71.7635C70.3979 71.8602 70.2935 71.9556 70.1858 72.0478C70.1637 72.0668 70.1417 72.0857 70.1197 72.1047C69.8978 72.2954 69.6756 72.4859 69.4485 72.6705C69.4016 72.7087 69.3548 72.747 69.308 72.7855C69.1549 72.9112 69 73.0335 68.8409 73.1516C68.7342 73.2308 68.6293 73.3122 68.5248 73.3943C68.3532 73.5285 68.1778 73.6566 68.0006 73.7831C67.9541 73.8164 67.9079 73.8499 67.8617 73.8836C67.6153 74.0634 67.3643 74.2361 67.1112 74.4064C67.0889 74.4214 67.0666 74.4365 67.0436 74.4519C66.3773 74.9001 65.6991 75.3286 65.0053 75.7331C64.9844 75.7453 64.9635 75.7576 64.9419 75.7702C64.5801 75.9812 64.2153 76.1863 63.8471 76.3859C63.8338 76.3931 63.8206 76.4003 63.8069 76.4077C63.0655 76.8093 62.3127 77.1936 61.5415 77.5347C61.4539 77.5734 61.3667 77.6129 61.2797 77.6529C60.6746 77.9299 60.0572 78.1803 59.4327 78.4102C59.4066 78.4198 59.4066 78.4198 59.38 78.4296C59.3315 78.4474 59.283 78.4651 59.2344 78.4827C59.2129 78.4906 59.2129 78.4906 59.191 78.4986C59.0928 78.5339 59.0928 78.5339 59.0457 78.5339C59.0457 72.2169 59.0457 65.9 59.0457 59.3916C55.9949 59.3916 52.9442 59.3916 49.8009 59.3916C49.8009 66.5008 49.8009 73.61 49.8009 80.9346C49.4917 80.999 49.1877 81.0612 48.8757 81.1044C48.8479 81.1083 48.8479 81.1083 48.8196 81.1123C48.5362 81.152 48.2523 81.1856 47.9675 81.2136C47.9514 81.2153 47.9352 81.2169 47.9186 81.2185C47.795 81.2308 47.6714 81.241 47.5477 81.2505C47.5125 81.2532 47.5125 81.2532 47.4767 81.256C46.9957 81.2927 46.5159 81.2999 46.0336 81.2993C45.9519 81.2992 45.8702 81.2993 45.7885 81.2997C45.0284 81.3032 44.27 81.2724 43.5149 81.1807C43.4963 81.1785 43.4778 81.1764 43.4586 81.1741C41.7807 80.9761 40.1333 80.5545 36.8288 78.6813C36.8073 78.6643 36.7859 78.6473 36.7638 78.6298C36.6468 78.5357 36.5348 78.4369 36.4245 78.335C36.3794 78.2939 36.3338 78.2539 36.2875 78.2142C36.1821 78.1222 36.0838 78.0236 35.9851 77.9245C35.967 77.9065 35.9489 77.8885 35.9303 77.8699C35.8253 77.7648 35.7243 77.6577 35.6284 77.5442C35.6176 77.5313 35.6067 77.5185 35.5955 77.5053C34.7436 76.49 34.1604 75.2113 34.1493 73.8687C34.1491 73.8479 34.1489 73.8272 34.1487 73.8059C34.1347 72.0291 34.6925 70.3608 35.5653 68.8259C35.5739 68.8106 35.5826 68.7953 35.5915 68.7796C35.8299 68.362 36.0883 67.9552 36.3655 67.5623C36.3764 67.5469 36.3873 67.5314 36.3985 67.5155C36.7291 67.0488 37.0811 66.5989 37.4527 66.1643C37.4823 66.1295 37.5117 66.0946 37.5411 66.0597C37.7495 65.8128 37.9693 65.5764 38.1997 65.3499C38.2512 65.2974 38.2981 65.2417 38.3451 65.1852C38.3871 65.1406 38.3871 65.1406 38.4396 65.1009C38.521 65.0389 38.5861 64.9883 38.6173 64.8885C38.6246 64.8136 38.6254 64.7412 38.624 64.6659C38.6242 64.6371 38.6244 64.6083 38.6248 64.5795C38.6256 64.5004 38.625 64.4213 38.6242 64.3422C38.6236 64.2561 38.6242 64.17 38.6247 64.084C38.6253 63.9331 38.6251 63.7823 38.6245 63.6314C38.6235 63.4071 38.6237 63.1829 38.6242 62.9586C38.6249 62.5812 38.6247 62.2039 38.6239 61.8266C38.6231 61.453 38.6228 61.0794 38.623 60.7058C38.623 60.6826 38.623 60.6594 38.6231 60.6354C38.6231 60.5175 38.6232 60.3995 38.6233 60.2816C38.6239 59.446 38.6235 58.6105 38.6226 57.7749C38.6217 56.9632 38.6212 56.1515 38.6214 55.3397C38.6214 55.3022 38.6214 55.3022 38.6214 55.2639C38.6214 55.0127 38.6214 54.7614 38.6215 54.5101C38.6216 53.9983 38.6217 53.4865 38.6217 52.9746C38.6217 52.9511 38.6217 52.9276 38.6217 52.9033C38.6217 51.3317 38.6204 49.76 38.6188 48.1883C38.8039 48.1292 38.9891 48.07 39.1742 48.0109C39.2603 47.9834 39.3463 47.9559 39.4324 47.9284C39.8943 47.7808 40.3562 47.6334 40.8182 47.4861C40.8978 47.4608 40.9773 47.4354 41.0569 47.4101C41.072 47.4052 41.0871 47.4004 41.1026 47.3955C41.5159 47.2637 41.9291 47.1318 42.3422 46.9998C42.3658 46.9923 42.3658 46.9923 42.3898 46.9846C42.5326 46.939 42.6755 46.8933 42.8184 46.8477C43.0401 46.7768 43.2618 46.706 43.4836 46.6352C43.4992 46.6302 43.5148 46.6252 43.531 46.62C43.6572 46.5797 43.7835 46.5394 43.9097 46.499C44.0202 46.4638 44.1307 46.4285 44.2412 46.3932C44.2568 46.3882 44.2725 46.3832 44.2886 46.378C44.5104 46.3072 44.7323 46.2363 44.9541 46.1654C45.6055 45.9573 46.2569 45.7493 46.9084 45.5416C47.387 45.3891 47.8655 45.2364 48.344 45.0835C48.3675 45.076 48.3675 45.076 48.3915 45.0683C48.6297 44.9922 48.8678 44.9161 49.106 44.84C49.5954 44.6836 50.0849 44.5272 50.5743 44.371C50.6065 44.3607 50.6387 44.3504 50.6708 44.3401C51.1141 44.1986 51.5575 44.0572 52.0009 43.916C52.0702 43.894 52.1395 43.8719 52.2088 43.8498C52.3004 43.8206 52.3921 43.7915 52.4838 43.7624C52.5145 43.7527 52.5452 43.7429 52.5759 43.7331C52.6159 43.7204 52.656 43.7077 52.696 43.6951C52.7173 43.6883 52.7386 43.6816 52.7606 43.6746C52.8123 43.6607 52.8123 43.6607 52.8755 43.6607C52.8755 47.6566 52.8755 51.6525 52.8755 55.7695C52.1041 55.7695 51.3328 55.7695 50.538 55.7695C50.5311 53.0036 50.5241 50.2378 50.5169 47.3881C49.8707 47.5966 49.8707 47.5966 49.2113 47.8093C48.6848 47.9777 48.6848 47.9777 48.4295 48.0593C48.1213 48.1579 47.8134 48.2574 47.5056 48.3568C47.0916 48.4905 46.6774 48.6237 46.263 48.7561C45.8908 48.875 45.5189 48.9948 45.147 49.1149C44.733 49.2486 44.3189 49.3818 43.9045 49.5142C43.5602 49.6242 43.2162 49.7349 42.8723 49.846C42.7072 49.8992 42.5422 49.9525 42.3772 50.0057C42.3501 50.0144 42.3231 50.0231 42.2961 50.0318C42.2828 50.0361 42.2695 50.0404 42.2558 50.0448C42.1629 50.0748 42.07 50.1048 41.9771 50.1348C41.853 50.1749 41.7288 50.2149 41.6047 50.2548C41.5589 50.2695 41.5132 50.2843 41.4675 50.2991C41.4048 50.3193 41.3421 50.3395 41.2794 50.3596C41.2521 50.3685 41.2521 50.3685 41.2242 50.3775C41.1988 50.3857 41.1988 50.3857 41.1729 50.3939C41.1584 50.3986 41.144 50.4033 41.129 50.4081C41.0724 50.4233 41.0142 50.432 40.9563 50.4416C40.9563 59.0866 40.9563 67.7316 40.9563 76.6386C40.8772 76.6123 40.812 76.5902 40.7395 76.5537C40.723 76.5455 40.7065 76.5372 40.6895 76.5287C40.6633 76.5154 40.6633 76.5154 40.6365 76.5017C40.6084 76.4876 40.6084 76.4876 40.5798 76.4732C40.4452 76.4051 40.3115 76.3353 40.1782 76.2646C40.0234 76.1827 39.8678 76.1025 39.712 76.0224C39.5792 75.9541 39.4465 75.8857 39.3137 75.8173C39.301 75.8108 39.2883 75.8042 39.2752 75.7975C39.1972 75.7573 39.1192 75.7169 39.0413 75.6765C39.0226 75.6669 39.004 75.6573 38.9848 75.6474C38.9509 75.6298 38.9173 75.6117 38.884 75.593C38.8305 75.5635 38.8305 75.5635 38.7743 75.5459C38.7064 75.5181 38.6676 75.4935 38.6188 75.4383C38.5858 75.304 38.5908 75.1706 38.5927 75.0329C38.5925 74.9905 38.5922 74.948 38.5919 74.9055C38.5911 74.7886 38.5917 74.6717 38.5926 74.5548C38.5932 74.4288 38.5926 74.3028 38.5922 74.1768C38.5917 73.9584 38.5919 73.7401 38.5926 73.5217C38.5934 73.2927 38.5937 73.0637 38.5935 72.8347C38.5935 72.8205 38.5935 72.8062 38.5934 72.7916C38.5934 72.7193 38.5933 72.6469 38.5932 72.5746C38.5926 72.0625 38.593 71.5503 38.5939 71.0381C38.5948 70.5405 38.5953 70.0429 38.5952 69.5454C38.5951 69.53 38.5951 69.5147 38.5951 69.4989C38.5951 69.3449 38.5951 69.1908 38.595 69.0368C38.5949 68.723 38.5948 68.4093 38.5948 68.0955C38.5948 68.0811 38.5948 68.0667 38.5948 68.0518C38.5948 67.0884 38.5962 66.125 38.5977 65.1616C38.5899 65.1791 38.5821 65.1966 38.5741 65.2146C38.5447 65.2803 38.5153 65.346 38.4859 65.4116C38.4732 65.4399 38.4606 65.4682 38.448 65.4964C38.3514 65.7124 38.2529 65.9271 38.1489 66.1396C38.1416 66.1546 38.1342 66.1697 38.1267 66.1852C37.9005 66.6483 37.662 67.1019 37.3848 67.5369C37.3092 67.6561 37.237 67.7774 37.1657 67.8993C37.1533 67.9203 37.1533 67.9203 37.1407 67.9417C36.4413 69.1329 36.3202 70.4288 36.3149 71.7805C36.3145 71.8656 36.3137 71.9508 36.3127 72.0359C36.3114 72.1403 36.3108 72.2447 36.3106 72.349C36.3104 72.3882 36.31 72.4273 36.3094 72.4664C36.3049 72.7605 36.3567 73.0118 36.4497 73.2903C36.4612 73.3262 36.4612 73.3262 36.4728 73.3627C36.7229 74.1414 37.1665 74.8448 37.721 75.4413C37.7699 75.4944 37.8174 75.5483 37.8646 75.6028C37.928 75.6744 37.9947 75.7377 38.0678 75.7993C38.1191 75.8433 38.168 75.8895 38.2174 75.9358C38.3709 76.0756 38.5362 76.1993 38.703 76.3228C38.7241 76.3385 38.7241 76.3385 38.7456 76.3545C40.3794 77.5663 42.4805 78.1408 45.0626 78.4457C45.1012 78.4493 45.1399 78.4531 45.1785 78.4569C45.7624 78.5128 46.3517 78.5028 46.937 78.5129C46.937 71.4037 46.937 64.2944 46.937 56.9698C51.8154 56.9698 56.6939 56.9698 61.7202 56.9698C61.7202 62.8281 61.7202 68.6864 61.7202 74.7223C62.2855 74.387 62.2855 74.387 62.8441 74.0413C62.8963 74.0083 62.9486 73.9753 63.001 73.9425C63.0833 73.8907 63.1654 73.8387 63.2475 73.7866C63.3014 73.7524 63.3555 73.7185 63.4096 73.6845C63.707 73.4967 63.9991 73.3015 64.2906 73.1047C64.31 73.0917 64.3293 73.0786 64.3492 73.0652C64.8001 72.7607 64.8001 72.7607 65.2462 72.4493C65.2763 72.428 65.3063 72.4067 65.3364 72.3854C65.3513 72.3748 65.3662 72.3642 65.3816 72.3533C65.4259 72.3221 65.4702 72.2909 65.5146 72.2598C65.7234 72.1134 65.9292 71.9633 66.1341 71.8114C66.1838 71.7747 66.2335 71.7382 66.2833 71.7017C66.5336 71.5183 66.7807 71.3311 67.027 71.1423C67.0401 71.1322 67.0533 71.1221 67.0669 71.1117C67.1329 71.0612 67.1988 71.0106 67.2645 70.9597C67.2908 70.9394 67.3172 70.919 67.3435 70.8987C67.5293 70.7553 67.7138 70.6105 67.8954 70.4618C67.9845 70.389 68.0746 70.3178 68.1654 70.2473C68.285 70.1543 68.3997 70.0566 68.5136 69.9568C68.5912 69.8889 68.6696 69.8225 68.7498 69.7577C68.8417 69.6833 68.9294 69.6053 69.0168 69.5256C69.0695 69.4788 69.1238 69.4346 69.1789 69.3905C69.3067 69.2872 69.4253 69.1748 69.5449 69.0621C69.597 69.013 69.6498 68.9648 69.704 68.918C69.8254 68.8133 69.9421 68.7034 70.0594 68.5942C70.0723 68.5822 70.0852 68.5702 70.0985 68.5579C70.3266 68.3458 70.5493 68.1287 70.7692 67.9082C70.8208 67.8565 70.8725 67.805 70.9241 67.7534C70.9575 67.72 70.9909 67.6866 71.0243 67.6531C71.0395 67.638 71.0546 67.6229 71.0703 67.6073C71.1537 67.5235 71.2337 67.4377 71.3107 67.3479C71.3681 67.2819 71.4287 67.219 71.4888 67.1556C71.5918 67.0462 71.6896 66.9344 71.7834 66.8168C71.8307 66.7592 71.8803 66.7048 71.931 66.6502C72.0405 66.531 72.1397 66.4054 72.2384 66.2772C72.2726 66.233 72.3072 66.189 72.3419 66.1451C72.5079 65.9344 72.6662 65.7197 72.8181 65.4986C72.8268 65.4861 72.8354 65.4736 72.8444 65.4608C73.9397 63.8803 74.5133 61.9431 74.1813 60.0237C74.0525 59.3196 73.8251 58.6561 73.492 58.0227C73.4797 57.999 73.4797 57.999 73.4672 57.9749C73.2571 57.5708 73.0032 57.1943 72.7128 56.8435C72.7035 56.8321 72.6942 56.8208 72.6846 56.8091C72.3939 56.4562 72.0824 56.1324 71.7257 55.8458C71.7116 55.8345 71.6976 55.8232 71.6831 55.8116C71.6698 55.801 71.6566 55.7904 71.6429 55.7795C71.631 55.77 71.619 55.7604 71.6067 55.7506C71.5751 55.7255 71.5751 55.7255 71.5335 55.7063C71.5336 55.7295 71.5336 55.7527 71.5336 55.7766C71.5352 56.7985 71.5365 57.8204 71.5364 58.8423C71.5364 58.8577 71.5364 58.8732 71.5364 58.8892C71.5364 59.2254 71.5363 59.5616 71.5362 59.8978C71.5362 60.0627 71.5361 60.2276 71.5361 60.3924C71.5361 60.4088 71.5361 60.4253 71.5361 60.4422C71.536 60.974 71.5365 61.5058 71.5374 62.0377C71.5384 62.5842 71.5386 63.1307 71.538 63.6772C71.5379 63.7544 71.5378 63.8316 71.5378 63.9088C71.5377 63.924 71.5377 63.9392 71.5377 63.9548C71.5375 64.1994 71.538 64.444 71.5388 64.6885C71.5395 64.9344 71.5395 65.1803 71.5388 65.4261C71.5384 65.5593 71.5383 65.6926 71.5392 65.8258C71.54 65.9477 71.5398 66.0696 71.5389 66.1916C71.5387 66.2357 71.5389 66.2799 71.5394 66.324C71.5434 66.6541 71.5434 66.6541 71.4663 66.7658C71.4138 66.8137 71.3621 66.8511 71.3019 66.8885C71.278 66.9092 71.2546 66.9305 71.232 66.9525C71.1308 67.0457 71.0292 67.1381 70.9253 67.2282C70.8574 67.2881 70.7908 67.3496 70.7242 67.4109C70.6226 67.5043 70.5201 67.5966 70.4174 67.6887C70.3823 67.7203 70.3472 67.7519 70.3121 67.7834C70.26 67.8304 70.2079 67.8773 70.1557 67.9241C70.059 68.0109 69.9629 68.0983 69.8673 68.1862C69.7857 68.2612 69.7033 68.3349 69.6196 68.4075C69.5517 68.4674 69.4852 68.5289 69.4185 68.5902C69.3341 68.6678 69.249 68.7449 69.1635 68.8214C69.1268 68.8544 69.0904 68.8877 69.0541 68.9211C69.0353 68.9383 69.0166 68.9555 68.9973 68.9733C68.9719 68.9967 68.9719 68.9967 68.946 69.0206C68.9012 69.0575 68.9012 69.0575 68.838 69.0786C68.838 60.2946 68.838 51.5106 68.838 42.4604C68.7963 42.4465 68.7546 42.4326 68.7117 42.4183C68.6795 42.4038 68.6476 42.3886 68.6161 42.3727C68.5983 42.3637 68.5804 42.3548 68.5621 42.3456C68.5431 42.3359 68.524 42.3263 68.5044 42.3163C68.4843 42.3062 68.4641 42.296 68.4433 42.2856C68.3787 42.2531 68.3142 42.2205 68.2497 42.1879C68.1657 42.1456 68.0817 42.1032 67.9977 42.061C67.9767 42.0504 67.9557 42.0399 67.9341 42.029C67.7672 41.9454 67.5991 41.8645 67.4305 41.7844C67.2672 41.7067 67.1053 41.6265 66.9438 41.5451C66.7304 41.4374 66.5166 41.3306 66.3004 41.2284C66.083 41.1256 65.8681 41.0179 65.6531 40.9099C65.4696 40.8178 65.2858 40.7266 65.1001 40.6388C64.8826 40.536 64.6677 40.4283 64.4528 40.3203C64.2693 40.2281 64.0854 40.1369 63.8997 40.0491C63.6823 39.9463 63.4674 39.8386 63.2524 39.7307C63.0689 39.6385 62.8851 39.5473 62.6994 39.4595C62.4819 39.3567 62.267 39.249 62.0521 39.141C61.8686 39.0489 61.6847 38.9577 61.4991 38.8699C61.2816 38.767 61.0667 38.6593 60.8518 38.5514C60.6499 38.45 60.4474 38.3505 60.2432 38.254C60.0252 38.1505 59.8099 38.0416 59.5945 37.933C59.5798 37.9256 59.565 37.9182 59.5498 37.9105C59.5227 37.8968 59.4955 37.8831 59.4684 37.8694C59.3359 37.8028 59.2017 37.7423 59.0668 37.68C59.0668 43.6218 59.0668 49.5635 59.0668 55.6852C58.2398 55.6852 57.4128 55.6852 56.5608 55.6852C56.5608 48.4301 56.5608 41.1749 56.5608 33.7Z" fill="white"/>
<path d="M166.192 47.1986C167.422 47.1986 168.652 47.1986 169.92 47.1986C169.92 50.5204 169.92 53.8422 169.92 57.2646C173.311 57.2646 176.702 57.2646 180.196 57.2646C180.196 53.9428 180.196 50.621 180.196 47.1986C181.426 47.1986 182.656 47.1986 183.924 47.1986C183.924 54.9541 183.924 62.7096 183.924 70.7001C182.694 70.7001 181.464 70.7001 180.196 70.7001C180.196 67.3713 180.196 64.0426 180.196 60.613C176.805 60.613 173.414 60.613 169.92 60.613C169.92 63.9417 169.92 67.2705 169.92 70.7001C168.69 70.7001 167.46 70.7001 166.192 70.7001C166.192 62.9446 166.192 55.1891 166.192 47.1986Z" fill="white"/>
<path d="M77.8511 47.1986C79.0812 47.1986 80.3112 47.1986 81.5785 47.1986C81.5785 50.5204 81.5785 53.8422 81.5785 57.2646C84.9698 57.2646 88.3611 57.2646 91.8552 57.2646C91.8552 53.9428 91.8552 50.621 91.8552 47.1986C93.0782 47.1986 94.3013 47.1986 95.5615 47.1986C95.5971 47.2342 95.5852 47.2785 95.5853 47.3261C95.5852 47.3492 95.5852 47.3492 95.5852 47.3728C95.5852 47.3891 95.5852 47.4055 95.5852 47.4223C95.5853 47.4778 95.5852 47.5334 95.5851 47.5889C95.5852 47.629 95.5852 47.6691 95.5852 47.7091C95.5853 47.8203 95.5852 47.9314 95.5851 48.0426C95.5851 48.1631 95.5851 48.2837 95.5851 48.4042C95.5852 48.6158 95.5851 48.8274 95.5851 49.039C95.585 49.2661 95.5849 49.4932 95.5849 49.7204C95.5849 49.7419 95.5849 49.7419 95.5849 49.7638C95.5849 49.8368 95.5849 49.9098 95.5849 49.9828C95.585 50.512 95.5849 51.0412 95.5848 51.5703C95.5847 52.0946 95.5846 52.6188 95.5845 53.143C95.5845 53.1592 95.5845 53.1755 95.5845 53.1923C95.5845 53.3408 95.5845 53.4894 95.5845 53.638C95.5845 54.0073 95.5845 54.3767 95.5845 54.746C95.5845 54.7629 95.5845 54.7797 95.5845 54.797C95.5844 55.6157 95.5843 56.4344 95.5841 57.2532C95.5841 57.5373 95.584 57.8215 95.584 58.1057C95.584 58.1322 95.584 58.1322 95.584 58.1591C95.5839 58.9781 95.5838 59.7971 95.5837 60.6161C95.5837 60.6693 95.5837 60.7225 95.5837 60.7756C95.5837 61.1279 95.5836 61.4801 95.5836 61.8324C95.5836 62.5333 95.5835 63.2343 95.5834 63.9352C95.5834 63.9686 95.5834 64.002 95.5834 64.0353C95.5833 65.5386 95.5831 67.0418 95.5829 68.545C95.5829 68.5661 95.5829 68.5661 95.5829 68.5876C95.5828 68.7952 95.5828 69.0027 95.5828 69.2102C95.5828 69.2463 95.5828 69.2463 95.5828 69.2831C95.5827 69.7554 95.5826 70.2277 95.5825 70.7001C94.3525 70.7001 93.1225 70.7001 91.8552 70.7001C91.8552 67.3713 91.8552 64.0426 91.8552 60.613C88.4639 60.613 85.0726 60.613 81.5785 60.613C81.5785 63.9417 81.5785 67.2705 81.5785 70.7001C80.3485 70.7001 79.1184 70.7001 77.8511 70.7001C77.8511 62.9446 77.8511 55.1891 77.8511 47.1986Z" fill="white"/>
<path d="M204.098 46.2088C205.363 46.2088 206.628 46.2088 207.931 46.2088C207.938 50.2533 207.945 54.2979 207.952 58.465C208.007 58.3538 208.063 58.2426 208.12 58.128C208.182 58.0399 208.242 57.9579 208.31 57.8753C208.327 57.8543 208.343 57.8332 208.361 57.8115C208.604 57.5107 208.882 57.2403 209.194 57.0119C209.218 56.9944 209.241 56.9768 209.265 56.9592C210.352 56.155 211.719 55.6661 213.076 55.6599C213.108 55.6597 213.108 55.6597 213.142 55.6594C214.07 55.6546 214.07 55.6546 214.522 55.7273C214.561 55.7336 214.561 55.7336 214.601 55.74C215.66 55.9159 216.655 56.3211 217.512 56.9698C217.525 56.979 217.537 56.9881 217.549 56.9976C217.708 57.1178 217.858 57.2444 218.003 57.3805C218.052 57.4254 218.101 57.469 218.151 57.5121C218.286 57.6302 218.406 57.7598 218.523 57.8964C218.549 57.9252 218.549 57.9252 218.574 57.9546C218.927 58.359 219.221 58.8125 219.471 59.2863C219.481 59.3055 219.491 59.3247 219.502 59.3444C219.66 59.6475 219.797 59.9542 219.913 60.276C219.92 60.296 219.928 60.3159 219.935 60.3365C220.287 61.3124 220.424 62.3548 220.422 63.3888C220.422 63.4168 220.422 63.4168 220.422 63.4455C220.42 64.7616 220.181 66.081 219.597 67.2675C219.587 67.2892 219.576 67.3109 219.565 67.3332C219.275 67.9193 218.92 68.4662 218.481 68.9522C218.47 68.965 218.458 68.9778 218.446 68.991C218.185 69.2799 217.907 69.5392 217.597 69.7735C217.584 69.7829 217.572 69.7923 217.559 69.8019C216.095 70.9187 214.215 71.3115 212.405 71.0778C211.156 70.9037 209.938 70.3344 209.009 69.4795C208.967 69.4405 208.924 69.4029 208.88 69.3655C208.713 69.2199 208.556 69.06 208.415 68.889C208.407 68.8788 208.398 68.8685 208.389 68.8579C208.191 68.6155 208.029 68.3701 207.889 68.0888C207.878 69.3814 207.878 69.3814 207.868 70.7001C206.624 70.7001 205.38 70.7001 204.098 70.7001C204.098 62.618 204.098 54.5358 204.098 46.2088ZM210.458 59.181C210.444 59.1876 210.43 59.1942 210.415 59.2011C210.056 59.3741 209.721 59.6082 209.426 59.8759C209.403 59.8959 209.381 59.9158 209.358 59.9358C209.239 60.0423 209.126 60.1513 209.026 60.276C209.008 60.2974 208.991 60.3188 208.973 60.3408C208.832 60.5156 208.704 60.6975 208.584 60.8867C208.572 60.9051 208.56 60.9234 208.547 60.9423C208.461 61.08 208.394 61.226 208.328 61.3739C208.311 61.4097 208.294 61.4451 208.278 61.4805C207.867 62.37 207.822 63.5129 208.026 64.4624C208.033 64.4959 208.04 64.5294 208.047 64.5629C208.1 64.8215 208.166 65.0652 208.268 65.3091C208.283 65.3471 208.283 65.3471 208.299 65.3859C208.323 65.4447 208.348 65.5033 208.373 65.5618C208.387 65.5618 208.401 65.5618 208.415 65.5618C208.417 65.5759 208.419 65.59 208.42 65.6046C208.441 65.6851 208.478 65.7522 208.519 65.8237C208.527 65.8384 208.536 65.8532 208.544 65.8684C208.933 66.539 209.508 67.1012 210.184 67.4781C210.198 67.4862 210.213 67.4942 210.227 67.5025C211.25 68.072 212.478 68.1859 213.602 67.8776C213.758 67.8325 213.909 67.7797 214.06 67.719C214.088 67.7079 214.088 67.7079 214.116 67.6965C214.225 67.6504 214.32 67.5948 214.418 67.5273C214.465 67.4953 214.513 67.47 214.564 67.4452C214.838 67.2983 215.078 67.0823 215.301 66.8674C215.318 66.8522 215.334 66.8369 215.351 66.8212C215.49 66.6875 215.606 66.5372 215.722 66.383C215.736 66.3652 215.736 66.3652 215.75 66.3471C215.902 66.146 216.027 65.9332 216.144 65.7092C216.151 65.6944 216.159 65.6797 216.167 65.6645C216.436 65.1387 216.563 64.5661 216.628 63.9824C216.631 63.9577 216.634 63.9331 216.636 63.9077C216.744 62.7229 216.489 61.48 215.786 60.5077C215.777 60.496 215.769 60.4843 215.76 60.4722C215.635 60.3005 215.497 60.1429 215.35 59.9896C215.326 59.9645 215.303 59.9391 215.279 59.9137C214.624 59.2266 213.602 58.7824 212.657 58.7537C212.575 58.752 212.493 58.7517 212.411 58.7519C212.394 58.7519 212.376 58.7519 212.358 58.752C211.691 58.7543 211.061 58.8929 210.458 59.181Z" fill="white"/>
<path d="M56.5608 33.7C56.645 33.728 56.7171 33.7542 56.7957 33.7922C56.8162 33.8021 56.8368 33.812 56.858 33.8222C56.8799 33.8328 56.9019 33.8435 56.9245 33.8545C56.9477 33.8657 56.9709 33.8769 56.9948 33.8885C57.2247 33.9997 57.4541 34.1122 57.6833 34.2249C57.8052 34.2849 57.9271 34.3447 58.049 34.4046C58.0732 34.4165 58.0974 34.4284 58.1224 34.4406C58.3308 34.5429 58.5395 34.6447 58.7483 34.7463C59.0468 34.8916 59.3451 35.0373 59.6433 35.1833C59.9538 35.3353 60.2643 35.4872 60.5751 35.6387C60.8962 35.7952 61.2172 35.952 61.5381 36.109C61.819 36.2463 62.0999 36.3835 62.3809 36.5205C62.7118 36.6818 63.0425 36.8436 63.3732 37.0055C63.6794 37.1554 63.9857 37.305 64.2922 37.4544C64.5957 37.6024 64.899 37.7506 65.2024 37.899C65.4832 38.0363 65.7641 38.1735 66.0451 38.3105C66.376 38.4718 66.7068 38.6336 67.0374 38.7955C67.3436 38.9454 67.65 39.095 67.9564 39.2444C68.2599 39.3924 68.5633 39.5406 68.8666 39.689C69.1648 39.8348 69.4632 39.9805 69.7617 40.126C69.9763 40.2306 70.1907 40.3354 70.4051 40.4405C70.4272 40.4513 70.4493 40.4621 70.4721 40.4733C70.5794 40.5259 70.6867 40.5785 70.7939 40.6311C70.9905 40.7275 71.1872 40.8231 71.3859 40.915C71.4892 40.963 71.4892 40.963 71.5125 40.9863C71.5146 41.0422 71.5154 41.0976 71.5153 41.1535C71.5154 41.1714 71.5154 41.1892 71.5155 41.2076C71.5156 41.2684 71.5156 41.3291 71.5156 41.3899C71.5157 41.4337 71.5158 41.4775 71.5159 41.5213C71.5161 41.6429 71.5163 41.7645 71.5163 41.886C71.5165 42.0179 71.5167 42.1497 71.5169 42.2815C71.5173 42.5282 71.5176 42.7748 71.5179 43.0215C71.5181 43.2547 71.5184 43.4879 71.5187 43.721C71.5187 43.7527 71.5188 43.7844 71.5188 43.8161C71.5189 43.8641 71.519 43.912 71.519 43.9599C71.5215 45.713 71.5228 47.4662 71.525 50.9204C71.5252 51.2486 71.5254 51.5767 71.5256 51.9049C71.5256 51.9631 71.5257 52.0213 71.5257 52.0795C71.5264 53.3057 71.5278 54.532 71.5296 55.7583C71.5309 56.6531 71.5321 57.548 71.5326 58.4428C71.5326 58.4704 71.5326 58.4704 71.5326 58.4985C71.5329 58.9024 71.533 59.3062 71.5331 59.71C71.5332 59.8725 71.5332 60.035 71.5333 60.1975C71.5333 60.2242 71.5333 60.2242 71.5333 60.2514C71.5335 60.8246 71.5343 61.3978 71.5355 61.971C71.5367 62.5483 71.5372 63.1255 71.5368 63.7028C71.5368 63.7825 71.5367 63.8623 71.5367 63.942C71.5367 63.9576 71.5366 63.9733 71.5366 63.9894C71.5365 64.2371 71.5371 64.4848 71.538 64.7325C71.5389 64.976 71.539 65.2194 71.5383 65.4629C71.538 65.5932 71.538 65.7234 71.5389 65.8537C71.5397 65.9722 71.5396 66.0906 71.5387 66.2091C71.5385 66.2517 71.5387 66.2944 71.5393 66.337C71.5434 66.6547 71.5434 66.6547 71.4663 66.7648C71.4138 66.8127 71.3619 66.8506 71.3019 66.8885C71.278 66.9092 71.2547 66.9305 71.232 66.9525C71.1308 67.0457 71.0292 67.1381 70.9253 67.2282C70.8574 67.2881 70.7908 67.3496 70.7242 67.4109C70.6226 67.5043 70.5201 67.5966 70.4174 67.6887C70.3823 67.7203 70.3472 67.7519 70.3121 67.7834C70.26 67.8304 70.2079 67.8773 70.1557 67.9241C70.059 68.0109 69.9629 68.0983 69.8673 68.1862C69.7857 68.2612 69.7033 68.3349 69.6196 68.4075C69.5517 68.4674 69.4852 68.5289 69.4185 68.5902C69.3341 68.6678 69.249 68.7449 69.1635 68.8214C69.1268 68.8544 69.0904 68.8877 69.0541 68.9211C69.0353 68.9383 69.0166 68.9555 68.9973 68.9733C68.9804 68.9889 68.9634 69.0045 68.946 69.0206C68.9012 69.0575 68.9012 69.0575 68.838 69.0786C68.838 60.2946 68.838 51.5106 68.838 42.4604C68.7963 42.4465 68.7546 42.4326 68.7117 42.4183C68.6795 42.4038 68.6476 42.3886 68.6161 42.3727C68.5983 42.3637 68.5804 42.3548 68.5621 42.3456C68.5431 42.3359 68.524 42.3263 68.5044 42.3163C68.4843 42.3062 68.4641 42.296 68.4433 42.2856C68.3787 42.2531 68.3142 42.2205 68.2497 42.1879C68.1657 42.1456 68.0817 42.1032 67.9977 42.061C67.9767 42.0504 67.9557 42.0399 67.9341 42.029C67.7672 41.9454 67.5991 41.8645 67.4305 41.7844C67.2672 41.7067 67.1053 41.6265 66.9438 41.5451C66.7304 41.4374 66.5166 41.3306 66.3004 41.2284C66.083 41.1256 65.8681 41.0179 65.6531 40.9099C65.4696 40.8178 65.2858 40.7266 65.1001 40.6388C64.8826 40.536 64.6677 40.4283 64.4528 40.3203C64.2693 40.2281 64.0854 40.1369 63.8997 40.0491C63.6823 39.9463 63.4674 39.8386 63.2524 39.7307C63.0689 39.6385 62.8851 39.5473 62.6994 39.4595C62.4819 39.3567 62.267 39.249 62.0521 39.141C61.8686 39.0489 61.6847 38.9577 61.4991 38.8699C61.2816 38.767 61.0667 38.6593 60.8518 38.5514C60.6499 38.45 60.4474 38.3505 60.2432 38.254C60.0252 38.1505 59.8099 38.0416 59.5945 37.933C59.5798 37.9256 59.565 37.9182 59.5498 37.9105C59.5227 37.8968 59.4955 37.8831 59.4684 37.8694C59.3359 37.8028 59.2017 37.7423 59.0668 37.68C59.0668 43.6218 59.0668 49.5635 59.0668 55.6852C58.2398 55.6852 57.4128 55.6852 56.5608 55.6852C56.5608 48.4301 56.5608 41.1749 56.5608 33.7Z" fill="white"/>
<path d="M104.603 55.6599C104.625 55.6597 104.647 55.6596 104.669 55.6594C104.739 55.6591 104.81 55.6589 104.88 55.6589C104.904 55.6589 104.928 55.6589 104.953 55.6589C105.315 55.6592 105.669 55.6687 106.028 55.7273C106.05 55.731 106.073 55.7346 106.097 55.7383C106.426 55.7919 106.743 55.8733 107.06 55.9801C107.075 55.9851 107.09 55.9901 107.105 55.9952C108.131 56.3399 109.166 57.0472 109.818 57.9175C109.827 57.9285 109.835 57.9396 109.844 57.951C109.98 58.1297 110.073 58.3012 110.176 58.5071C110.183 57.7079 110.19 56.9087 110.197 56.0853C111.448 56.0853 112.699 56.0853 113.988 56.0853C113.988 60.9082 113.988 65.7311 113.988 70.7001C112.751 70.7001 111.514 70.7001 110.239 70.7001C110.232 69.8384 110.226 68.9766 110.218 68.0888C110.177 68.1722 110.135 68.2556 110.092 68.3415C110.052 68.4033 110.013 68.4627 109.97 68.5218C109.959 68.5371 109.948 68.5523 109.936 68.568C109.803 68.7522 109.658 68.9247 109.504 69.0929C109.466 69.1353 109.429 69.1784 109.392 69.222C109.215 69.4247 109.021 69.6091 108.807 69.7735C108.796 69.7827 108.784 69.7919 108.772 69.8013C107.37 70.9025 105.714 71.2894 103.954 71.0881C102.253 70.8757 100.533 70.043 99.4593 68.6725C99.4448 68.6536 99.4302 68.6347 99.4152 68.6153C99.3971 68.5926 99.3789 68.57 99.3606 68.5475C99.0057 68.1066 98.7197 67.6259 98.4676 67.1201C98.4585 67.1021 98.4494 67.0841 98.44 67.0656C98.001 66.1877 97.7716 65.1693 97.7095 64.1929C97.7077 64.1675 97.7059 64.142 97.7041 64.1158C97.6885 63.8835 97.6842 63.6518 97.6845 63.419C97.6845 63.4003 97.6845 63.3815 97.6845 63.3622C97.688 61.4656 98.2345 59.6518 99.4363 58.1702C99.4454 58.1588 99.4546 58.1474 99.464 58.1357C99.6034 57.9635 99.7553 57.8048 99.9114 57.6476C99.9296 57.6293 99.9477 57.6109 99.9664 57.592C100.092 57.467 100.224 57.3539 100.363 57.2436C100.39 57.2215 100.417 57.1994 100.443 57.1772C100.62 57.0328 100.802 56.9015 100.995 56.7803C101.01 56.7705 101.026 56.7608 101.042 56.7507C102.111 56.0844 103.334 55.6657 104.603 55.6599ZM105.038 58.823C105.021 58.8265 105.004 58.83 104.987 58.8336C104.23 58.9939 103.527 59.3498 102.959 59.8743C102.916 59.9138 102.871 59.9515 102.827 59.9891C102.528 60.2518 102.296 60.5909 102.09 60.9288C102.075 60.9519 102.061 60.9749 102.046 60.9987C101.717 61.5515 101.547 62.1878 101.479 62.8241C101.477 62.8456 101.474 62.867 101.472 62.8891C101.356 64.1775 101.679 65.4337 102.49 66.4462C102.538 66.5025 102.587 66.5573 102.637 66.6114C102.676 66.6536 102.713 66.6969 102.75 66.741C103.449 67.5388 104.555 67.9665 105.591 68.0383C106.337 68.0794 107.083 67.9584 107.754 67.6255C107.769 67.6183 107.784 67.6111 107.8 67.6037C108.505 67.2596 109.068 66.7071 109.481 66.0461C109.493 66.027 109.493 66.027 109.505 66.0075C109.836 65.4707 110.022 64.8555 110.113 64.2351C110.116 64.2193 110.118 64.2035 110.121 64.1872C110.206 63.6239 110.187 63.0049 110.092 62.4451C110.089 62.425 110.085 62.405 110.082 62.3844C110.003 61.939 109.869 61.4898 109.649 61.093C109.628 61.0535 109.607 61.0137 109.587 60.9736C109.098 60.0226 108.251 59.3136 107.246 58.9572C107.116 58.9154 106.984 58.8818 106.85 58.8506C106.823 58.8442 106.823 58.8442 106.796 58.8377C106.493 58.7701 106.195 58.7518 105.887 58.7532C105.861 58.7533 105.861 58.7533 105.834 58.7533C105.564 58.7543 105.302 58.7659 105.038 58.823Z" fill="white"/>
<path d="M141.785 55.8326C141.807 55.8371 141.829 55.8415 141.852 55.846C142.375 55.9548 142.903 56.1224 143.384 56.3585C143.426 56.3794 143.469 56.3996 143.512 56.4197C144.261 56.7767 144.989 57.3125 145.509 57.9648C145.538 58.0019 145.568 58.0386 145.599 58.0748C145.843 58.3621 146.047 58.6832 146.229 59.0125C146.245 59.0409 146.245 59.0409 146.261 59.0699C146.762 59.979 147.009 60.9583 147.134 61.9818C147.137 62.0044 147.14 62.027 147.143 62.0503C147.226 62.7481 147.273 63.6065 147.134 64.2982C143.416 64.2982 139.698 64.2982 135.868 64.2982C135.974 65.2902 136.19 66.2065 136.858 66.9727C136.867 66.983 136.875 66.9934 136.885 67.004C137.018 67.1574 137.159 67.2917 137.321 67.4149C137.332 67.4239 137.344 67.4329 137.356 67.4421C138.221 68.1169 139.317 68.326 140.393 68.3244C140.409 68.3244 140.425 68.3244 140.441 68.3244C141.22 68.3227 142.011 68.2278 142.733 67.9203C142.749 67.9136 142.765 67.9068 142.781 67.8998C143.597 67.5503 144.373 67.0555 144.905 66.3306C144.944 66.2778 144.944 66.2778 144.986 66.2356C145.097 66.3669 145.202 66.5007 145.301 66.6411C145.375 66.7469 145.452 66.8514 145.529 66.9556C145.541 66.9725 145.553 66.9894 145.566 67.0068C145.592 67.0414 145.617 67.0759 145.643 67.1105C145.705 67.1944 145.767 67.2783 145.829 67.3623C145.853 67.3956 145.878 67.429 145.902 67.4623C145.951 67.529 146.001 67.5957 146.05 67.6624C146.062 67.6789 146.074 67.6954 146.087 67.7124C146.111 67.7456 146.135 67.7787 146.16 67.8119C146.224 67.8984 146.287 67.9849 146.351 68.0714C146.364 68.0893 146.378 68.1072 146.391 68.1256C146.416 68.1596 146.441 68.1937 146.467 68.2277C146.489 68.2583 146.512 68.289 146.534 68.3197C146.555 68.3479 146.576 68.3757 146.598 68.4031C146.67 68.4947 146.67 68.4947 146.674 68.563C146.639 68.6384 146.589 68.6947 146.534 68.7561C146.523 68.7691 146.511 68.7822 146.499 68.7956C146.476 68.8218 146.453 68.848 146.429 68.8741C146.402 68.9047 146.375 68.9356 146.348 68.9665C146.149 69.192 145.938 69.3981 145.702 69.584C145.678 69.6038 145.654 69.6237 145.63 69.6436C144.145 70.8701 142.107 71.1236 139.144 71.0949C137.765 70.9575 136.428 70.5276 135.299 69.7103C135.278 69.6949 135.278 69.6949 135.256 69.6791C135.092 69.5601 134.934 69.438 134.786 69.2986C134.741 69.2571 134.696 69.2171 134.65 69.1774C134.562 69.1003 134.478 69.0194 134.395 68.9364C134.38 68.9217 134.366 68.9069 134.35 68.8917C134.254 68.7938 134.164 68.6941 134.079 68.5857C134.05 68.5488 134.02 68.5125 133.989 68.477C133.019 67.3629 132.533 65.868 132.367 64.4233C132.365 64.4082 132.363 64.3932 132.362 64.3777C132.319 64.0049 132.305 63.6335 132.305 63.2585C132.305 63.2392 132.305 63.22 132.305 63.2002C132.307 62.2894 132.432 61.3979 132.709 60.5287C132.715 60.5108 132.72 60.493 132.726 60.4745C132.973 59.7051 133.355 58.9448 133.867 58.3176C133.883 58.2976 133.899 58.2776 133.916 58.257C134.021 58.1256 134.132 57.9998 134.246 57.8753C134.266 57.854 134.285 57.8326 134.304 57.8112C134.399 57.7051 134.495 57.6024 134.604 57.5107C134.651 57.4713 134.695 57.4299 134.74 57.3884C135.116 57.0505 135.547 56.7625 135.994 56.5276C136.014 56.5171 136.014 56.5171 136.034 56.5064C136.824 56.091 137.681 55.848 138.563 55.7273C138.588 55.7239 138.613 55.7204 138.639 55.7168C139.674 55.5807 140.764 55.6261 141.785 55.8326ZM138.942 58.486C138.914 58.4916 138.914 58.4916 138.885 58.4973C138.136 58.6503 137.473 59.0088 136.927 59.5482C136.916 59.5591 136.905 59.5701 136.894 59.5814C136.834 59.6345 136.834 59.6345 136.815 59.7074C136.802 59.7074 136.788 59.7074 136.773 59.7074C136.759 59.7422 136.746 59.7769 136.731 59.8127C136.717 59.8127 136.703 59.8127 136.689 59.8127C136.656 59.8537 136.627 59.8941 136.598 59.9378C136.589 59.9515 136.58 59.9652 136.571 59.9794C136.268 60.4499 136.035 60.9593 135.973 61.5185C138.489 61.5185 141.004 61.5185 143.596 61.5185C143.596 61.377 143.595 61.2639 143.563 61.1302C143.56 61.1141 143.556 61.0979 143.552 61.0813C143.353 60.2602 142.885 59.5537 142.207 59.0546C142.188 59.0409 142.188 59.0409 142.169 59.027C141.597 58.6122 140.888 58.4222 140.185 58.4186C140.166 58.4184 140.147 58.4183 140.127 58.4181C140.064 58.4178 140.002 58.4176 139.94 58.4176C139.919 58.4176 139.898 58.4176 139.876 58.4176C139.561 58.4179 139.253 58.4246 138.942 58.486Z" fill="white"/>
<path d="M157.716 55.6576C157.737 55.6576 157.759 55.6577 157.78 55.6577C158.117 55.6587 158.447 55.6723 158.78 55.7273C158.813 55.7328 158.813 55.7328 158.848 55.7383C159.82 55.8995 160.813 56.2392 161.602 56.8435C161.62 56.8579 161.639 56.8724 161.659 56.8873C161.767 56.9721 161.87 57.062 161.971 57.1547C162.021 57.1996 162.071 57.2433 162.121 57.287C162.209 57.365 162.284 57.4488 162.36 57.5384C162.378 57.5591 162.396 57.5799 162.415 57.6012C162.668 57.8874 162.889 58.1954 163.076 58.5282C163.083 58.5418 163.091 58.5554 163.099 58.5695C163.612 59.469 163.775 60.5358 163.773 61.5581C163.773 61.5977 163.773 61.6373 163.773 61.6769C163.773 61.785 163.773 61.8931 163.773 62.0012C163.773 62.1181 163.773 62.2349 163.773 62.3518C163.773 62.554 163.773 62.7562 163.773 62.9584C163.773 63.2507 163.773 63.5431 163.773 63.8354C163.773 64.3098 163.772 64.7841 163.772 65.2585C163.772 65.7192 163.772 66.1798 163.772 66.6405C163.772 66.6618 163.772 66.6618 163.772 66.6836C163.772 66.8263 163.772 66.9691 163.772 67.1118C163.771 68.3079 163.771 69.504 163.771 70.7001C162.506 70.7001 161.241 70.7001 159.938 70.7001C159.937 70.0917 159.936 69.4834 159.935 68.8566C159.934 68.4708 159.933 68.085 159.932 67.6992C159.932 67.4964 159.932 67.2937 159.931 67.0909C159.931 67.0655 159.931 67.0401 159.931 67.0139C159.93 66.6048 159.93 66.1958 159.929 65.7867C159.928 65.3662 159.927 64.9458 159.926 64.5253C159.926 64.2663 159.925 64.0073 159.925 63.7483C159.925 63.5701 159.925 63.392 159.924 63.2138C159.924 63.1114 159.924 63.009 159.924 62.9065C159.923 61.6381 159.863 60.3499 158.927 59.3916C158.286 58.7571 157.422 58.517 156.54 58.5218C155.512 58.5329 154.6 59.0351 153.886 59.7502C153.74 59.9001 153.615 60.064 153.494 60.2339C153.484 60.2475 153.474 60.2611 153.464 60.2751C153.326 60.4691 153.215 60.6708 153.115 60.8867C153.104 60.9105 153.092 60.9342 153.081 60.9587C152.847 61.4754 152.754 62.0352 152.754 62.5989C152.753 62.6339 152.753 62.6689 152.753 62.7039C152.753 62.7998 152.753 62.8956 152.753 62.9915C152.753 63.095 152.752 63.1984 152.752 63.3019C152.751 63.4811 152.751 63.6603 152.751 63.8395C152.75 64.0985 152.75 64.3576 152.749 64.6167C152.748 65.037 152.747 65.4574 152.746 65.8777C152.745 66.286 152.745 66.6943 152.744 67.1026C152.744 67.128 152.744 67.1535 152.744 67.1797C152.743 67.3785 152.743 67.5774 152.742 67.7763C152.74 68.7509 152.738 69.7255 152.736 70.7001C151.471 70.7001 150.206 70.7001 148.903 70.7001C148.903 65.8772 148.903 61.0544 148.903 56.0853C150.168 56.0853 151.433 56.0853 152.736 56.0853C152.743 56.8289 152.75 57.5725 152.757 58.3386C152.785 58.2691 152.813 58.1996 152.841 58.128C152.877 58.0673 152.877 58.0673 152.912 58.0201C152.925 58.0028 152.938 57.9854 152.951 57.9676C152.963 57.951 152.976 57.9345 152.989 57.9175C153 57.9024 153.011 57.8874 153.022 57.872C153.043 57.8441 153.064 57.8162 153.085 57.7885C153.114 57.75 153.142 57.7108 153.169 57.6713C153.215 57.606 153.267 57.5516 153.325 57.4963C153.336 57.4849 153.347 57.4735 153.359 57.4617C153.389 57.4303 153.42 57.4 153.452 57.3699C153.466 57.3699 153.48 57.3699 153.494 57.3699C153.499 57.358 153.504 57.3461 153.509 57.3339C153.934 56.5862 155.332 56.0829 156.101 55.862C156.258 55.819 156.416 55.7837 156.575 55.7524C156.596 55.7483 156.617 55.7441 156.638 55.7399C156.996 55.6737 157.353 55.6562 157.716 55.6576Z" fill="white"/>
<path d="M186.809 56.0853C188.053 56.0853 189.297 56.0853 190.578 56.0853C190.579 56.6357 190.58 57.186 190.581 57.753C190.581 58.1022 190.582 58.4515 190.583 58.8007C190.583 58.9843 190.583 59.1679 190.584 59.3515C190.584 59.386 190.584 59.386 190.584 59.4212C190.585 59.7913 190.585 60.1614 190.586 60.5315C190.586 60.9121 190.587 61.2926 190.588 61.6732C190.588 61.9076 190.589 62.1419 190.589 62.3762C190.589 62.5375 190.589 62.6988 190.59 62.86C190.59 62.9527 190.59 63.0454 190.59 63.1381C190.589 64.5119 190.793 66.0142 191.784 67.0503C192.453 67.6949 193.394 67.9119 194.3 67.9024C195.235 67.875 196.118 67.6285 196.781 66.9398C197.365 66.2959 197.641 65.4136 197.776 64.5733C197.783 64.5358 197.783 64.5358 197.789 64.4976C197.867 63.9806 197.871 63.4593 197.871 62.9378C197.871 62.8455 197.872 62.7531 197.872 62.6608C197.872 62.5015 197.873 62.3422 197.873 62.183C197.873 61.9527 197.874 61.7225 197.874 61.4922C197.875 61.1184 197.876 60.7447 197.877 60.3709C197.877 60.0083 197.878 59.6456 197.879 59.283C197.879 59.2603 197.879 59.2377 197.879 59.2143C197.88 59.0371 197.88 58.8599 197.88 58.6826C197.882 57.8169 197.884 56.9511 197.886 56.0853C199.137 56.0853 200.387 56.0853 201.676 56.0853C201.678 58.0725 201.678 58.0725 201.678 58.9055C201.678 59.0962 201.678 59.2868 201.679 59.4774C201.679 59.5013 201.679 59.5252 201.679 59.5498C201.679 59.9342 201.679 60.3186 201.68 60.703C201.68 61.0983 201.68 61.4935 201.68 61.8887C201.68 62.1321 201.68 62.3755 201.681 62.6189C201.681 62.7864 201.681 62.9538 201.681 63.1213C201.681 63.2176 201.681 63.3138 201.681 63.4101C201.686 65.2984 201.335 67.2071 200.097 68.6995C200.087 68.711 200.078 68.7225 200.068 68.7344C199.821 69.0381 199.545 69.324 199.233 69.5629C199.211 69.5808 199.189 69.5987 199.167 69.6167C197.548 70.9298 195.388 71.2605 193.063 71.0823C191.698 70.9363 190.368 70.4792 189.294 69.605C189.283 69.5962 189.272 69.5874 189.261 69.5784C188.892 69.2768 188.558 68.9486 188.27 68.569C188.251 68.5439 188.231 68.5189 188.212 68.494C187.246 67.24 186.803 65.5789 186.806 64.0118C186.806 63.9774 186.806 63.943 186.806 63.9086C186.806 63.8149 186.806 63.7212 186.806 63.6275C186.806 63.5262 186.806 63.4248 186.806 63.3235C186.806 63.1482 186.806 62.9729 186.807 62.7975C186.807 62.5441 186.807 62.2906 186.807 62.0371C186.807 61.6258 186.807 61.2145 186.807 60.8033C186.807 60.4039 186.808 60.0045 186.808 59.6051C186.808 59.5802 186.808 59.5553 186.808 59.5296C186.808 59.3349 186.808 59.1402 186.808 58.9455C186.808 57.9921 186.808 57.0387 186.809 56.0853Z" fill="white"/>
<path d="M52.8755 43.6607C52.8755 47.6566 52.8755 51.6525 52.8755 55.7695C52.1041 55.7695 51.3328 55.7695 50.538 55.7695C50.5311 53.0036 50.5241 50.2378 50.5169 47.3881C50.0861 47.5271 49.6552 47.6661 49.2113 47.8093C48.6848 47.9777 48.6848 47.9777 48.4295 48.0593C48.1213 48.1579 47.8134 48.2574 47.5056 48.3568C47.0916 48.4905 46.6774 48.6237 46.263 48.7561C45.8908 48.875 45.5189 48.9948 45.147 49.1149C44.733 49.2486 44.3189 49.3818 43.9045 49.5142C43.5602 49.6242 43.2162 49.7349 42.8723 49.846C42.7072 49.8992 42.5422 49.9525 42.3772 50.0057C42.3501 50.0144 42.3231 50.0231 42.2961 50.0318C42.2828 50.0361 42.2695 50.0404 42.2558 50.0448C42.1629 50.0748 42.07 50.1048 41.9771 50.1348C41.853 50.1749 41.7288 50.2149 41.6047 50.2548C41.5589 50.2695 41.5132 50.2843 41.4675 50.2991C41.4048 50.3193 41.3421 50.3395 41.2794 50.3596C41.2612 50.3655 41.243 50.3714 41.2242 50.3775C41.2073 50.383 41.1904 50.3884 41.1729 50.3939C41.1512 50.4009 41.1512 50.4009 41.129 50.4081C41.0724 50.4233 41.0142 50.432 40.9563 50.4416C40.9563 59.0866 40.9563 67.7316 40.9563 76.6386C40.8772 76.6123 40.812 76.5902 40.7395 76.5537C40.7148 76.5413 40.7148 76.5413 40.6895 76.5287C40.6633 76.5154 40.6633 76.5154 40.6365 76.5017C40.6178 76.4923 40.5991 76.4829 40.5798 76.4732C40.4452 76.4051 40.3115 76.3353 40.1782 76.2646C40.0234 76.1827 39.8678 76.1025 39.712 76.0224C39.5792 75.9541 39.4465 75.8857 39.3137 75.8173C39.301 75.8108 39.2883 75.8042 39.2752 75.7975C39.1972 75.7573 39.1192 75.7169 39.0413 75.6765C39.0133 75.6621 39.0133 75.6621 38.9848 75.6474C38.9509 75.6298 38.9172 75.6116 38.884 75.5929C38.8306 75.5633 38.8306 75.5633 38.7742 75.5471C38.7045 75.5198 38.6676 75.4959 38.6188 75.4383C38.5757 75.2985 38.591 75.1416 38.5929 74.9972C38.5927 74.9505 38.5925 74.9039 38.5921 74.8573C38.5915 74.7284 38.5922 74.5996 38.593 74.4707C38.5937 74.3453 38.5933 74.2198 38.593 74.0943C38.5924 73.8344 38.5928 73.5746 38.5937 73.3147C38.5946 73.0514 38.5951 72.788 38.595 72.5246C38.595 72.5079 38.5949 72.4913 38.5949 72.4742C38.5949 72.3894 38.5949 72.3047 38.5948 72.2199C38.5945 71.606 38.5953 70.9922 38.5965 70.3783C38.5978 69.7703 38.5986 69.1623 38.5988 68.5543C38.5988 68.5355 38.5988 68.5166 38.5988 68.4972C38.5989 68.3248 38.5989 68.1524 38.599 67.98C38.5991 67.5514 38.5993 67.1229 38.5996 66.6943C38.5996 66.6748 38.5996 66.6553 38.5996 66.6352C38.6002 65.6856 38.6015 64.7359 38.6029 63.7863C38.6034 63.4567 38.6039 63.1272 38.6043 62.7976C38.6043 62.7771 38.6044 62.7567 38.6044 62.7356C38.6057 61.7856 38.6065 60.8356 38.6072 59.8855C38.6072 59.8238 38.6073 59.7622 38.6073 59.7005C38.6076 59.2918 38.6078 58.8831 38.6081 58.4745C38.6086 57.6613 38.6092 56.8481 38.6098 56.0349C38.6098 55.9962 38.6099 55.9574 38.6099 55.9187C38.6112 54.1751 38.6132 52.4314 38.6154 50.6878C38.6155 50.6715 38.6155 50.6551 38.6155 50.6383C38.6166 49.8217 38.6176 49.005 38.6188 48.1883C38.8039 48.1292 38.9891 48.07 39.1742 48.0109C39.2603 47.9834 39.3463 47.9559 39.4324 47.9284C39.8943 47.7808 40.3562 47.6334 40.8182 47.4861C40.8978 47.4608 40.9773 47.4354 41.0569 47.4101C41.072 47.4052 41.0871 47.4004 41.1026 47.3955C41.5159 47.2637 41.9291 47.1318 42.3422 46.9998C42.3579 46.9948 42.3736 46.9898 42.3898 46.9846C42.5326 46.939 42.6755 46.8933 42.8184 46.8477C43.0401 46.7768 43.2618 46.706 43.4836 46.6352C43.4992 46.6302 43.5148 46.6252 43.531 46.62C43.6572 46.5797 43.7835 46.5394 43.9097 46.499C44.0202 46.4638 44.1307 46.4285 44.2412 46.3932C44.2568 46.3882 44.2725 46.3832 44.2886 46.378C44.5104 46.3072 44.7323 46.2363 44.9541 46.1654C45.6055 45.9573 46.2569 45.7493 46.9084 45.5416C47.387 45.3891 47.8655 45.2364 48.344 45.0835C48.3596 45.0785 48.3753 45.0735 48.3915 45.0683C48.6297 44.9922 48.8678 44.9161 49.106 44.84C49.5954 44.6836 50.0849 44.5272 50.5743 44.371C50.6065 44.3607 50.6387 44.3504 50.6708 44.3401C51.1141 44.1986 51.5575 44.0572 52.0009 43.916C52.0702 43.894 52.1395 43.8719 52.2088 43.8498C52.3004 43.8206 52.3921 43.7915 52.4838 43.7624C52.5145 43.7527 52.5452 43.7429 52.5759 43.7331C52.6159 43.7204 52.656 43.7077 52.696 43.6951C52.7173 43.6883 52.7386 43.6816 52.7606 43.6746C52.8123 43.6607 52.8123 43.6607 52.8755 43.6607Z" fill="white"/>
<path d="M115.041 56.0853C116.389 56.0853 117.737 56.0853 119.126 56.0853C119.273 56.4409 119.418 56.7954 119.556 57.1544C119.651 57.4007 119.749 57.6458 119.846 57.8911C119.856 57.9152 119.865 57.9393 119.875 57.9641C119.914 58.0612 119.952 58.1583 119.991 58.2554C120.08 58.4805 120.169 58.7057 120.258 58.9309C120.273 58.9678 120.287 59.0047 120.302 59.0416C120.331 59.1146 120.36 59.1877 120.388 59.2607C120.455 59.4293 120.522 59.5979 120.588 59.7665C120.611 59.8231 120.633 59.8797 120.655 59.9363C120.723 60.107 120.79 60.2778 120.858 60.4485C121.014 60.8425 121.17 61.2366 121.325 61.6307C121.43 61.8965 121.535 62.1622 121.64 62.428C121.648 62.4468 121.655 62.4656 121.663 62.485C121.716 62.6191 121.769 62.7532 121.822 62.8873C121.882 63.0404 121.943 63.1935 122.003 63.3466C122.011 63.3655 122.018 63.3843 122.026 63.4037C122.136 63.6831 122.247 63.9625 122.357 64.242C122.477 64.5458 122.597 64.8496 122.717 65.1533C122.732 65.1915 122.747 65.2297 122.762 65.2678C122.77 65.2868 122.777 65.3058 122.785 65.3253C122.839 65.4606 122.892 65.596 122.945 65.7313C123.131 66.2017 123.318 66.6717 123.506 67.1412C123.692 66.6911 123.871 66.2385 124.049 65.7857C124.117 65.6139 124.185 65.4422 124.253 65.2705C124.29 65.1765 124.327 65.0824 124.364 64.9883C124.417 64.8552 124.47 64.7221 124.522 64.589C124.672 64.2114 124.821 63.8337 124.97 63.4559C125.081 63.1738 125.193 62.8917 125.304 62.6096C125.315 62.5813 125.315 62.5813 125.327 62.5525C125.387 62.3992 125.448 62.2459 125.509 62.0926C125.562 61.9587 125.615 61.8248 125.668 61.6909C125.675 61.6721 125.682 61.6532 125.69 61.6338C125.794 61.3708 125.898 61.1077 126.002 60.8446C126.159 60.4476 126.315 60.0507 126.472 59.6539C126.517 59.54 126.562 59.4261 126.607 59.3122C126.615 59.2935 126.622 59.2749 126.63 59.2556C126.652 59.1992 126.674 59.1427 126.697 59.0862C126.779 58.8778 126.862 58.6694 126.944 58.461C126.974 58.3844 127.005 58.3078 127.035 58.2312C127.05 58.1932 127.065 58.1551 127.08 58.1171C127.164 57.9046 127.248 57.6922 127.332 57.4796C127.515 57.0142 127.701 56.5498 127.887 56.0853C129.235 56.0853 130.583 56.0853 131.972 56.0853C131.874 56.3299 131.777 56.5735 131.672 56.8151C131.623 56.929 131.574 57.0429 131.525 57.1568C131.517 57.1764 131.508 57.1961 131.499 57.2163C131.415 57.4125 131.332 57.609 131.248 57.8056C131.233 57.8401 131.219 57.8746 131.204 57.9091C131.182 57.962 131.159 58.0148 131.137 58.0677C131.052 58.2668 130.968 58.4659 130.883 58.665C130.699 59.0974 130.515 59.53 130.331 59.9625C130.264 60.1196 130.197 60.2767 130.131 60.4338C130.093 60.5216 130.056 60.6094 130.019 60.6972C130.004 60.7323 129.989 60.7674 129.974 60.8025C129.967 60.8199 129.959 60.8372 129.952 60.8551C129.169 62.6978 129.169 62.6978 129.146 62.7504C129.131 62.7855 129.116 62.8206 129.101 62.8557C129.064 62.9436 129.027 63.0314 128.989 63.1193C128.923 63.2758 128.856 63.4324 128.79 63.589C128.613 64.0045 128.437 64.4199 128.26 64.8352C128.094 65.2256 127.928 65.6159 127.762 66.0064C127.695 66.1635 127.628 66.3206 127.562 66.4777C127.524 66.5655 127.487 66.6533 127.45 66.741C127.435 66.7761 127.42 66.8112 127.405 66.8463C127.397 66.8637 127.39 66.8811 127.383 66.899C127.121 67.5132 126.86 68.1274 126.599 68.7416C126.592 68.759 126.585 68.7764 126.577 68.7943C126.562 68.8294 126.547 68.8645 126.532 68.8996C126.495 68.987 126.458 69.0744 126.421 69.1617C126.352 69.3242 126.283 69.4866 126.214 69.649C126.181 69.7246 126.149 69.8001 126.117 69.8757C126.102 69.9112 126.087 69.9467 126.072 69.9822C126.051 70.032 126.029 70.0817 126.008 70.1314C125.998 70.155 125.998 70.155 125.988 70.179C125.933 70.3088 125.879 70.4391 125.827 70.5698C125.783 70.6767 125.783 70.6767 125.76 70.7001C125.702 70.7021 125.645 70.7028 125.587 70.7026C125.569 70.7026 125.55 70.7026 125.531 70.7027C125.469 70.7027 125.407 70.7026 125.346 70.7025C125.301 70.7025 125.257 70.7025 125.213 70.7025C125.093 70.7025 124.972 70.7024 124.852 70.7022C124.726 70.7021 124.6 70.7021 124.475 70.702C124.237 70.702 123.999 70.7018 123.76 70.7016C123.489 70.7014 123.218 70.7012 122.947 70.7011C122.39 70.7009 121.832 70.7005 121.274 70.7001C121.251 70.65 121.227 70.5999 121.204 70.5497C121.194 70.5287 121.194 70.5287 121.184 70.5072C121.128 70.3879 121.075 70.2674 121.024 70.1461C121.015 70.1245 121.006 70.1029 120.996 70.0807C120.977 70.0344 120.957 69.9882 120.938 69.9419C120.89 69.8286 120.842 69.7155 120.793 69.6023C120.777 69.5628 120.76 69.5233 120.743 69.4838C120.626 69.208 120.508 68.9327 120.39 68.6574C120.224 68.2716 120.059 67.8855 119.895 67.4992C119.728 67.1076 119.561 66.7162 119.393 66.3251C119.383 66.3003 119.372 66.2754 119.361 66.2498C119.273 66.0438 119.184 65.8379 119.096 65.6319C119.049 65.5234 119.003 65.4149 118.956 65.3064C118.949 65.289 118.941 65.2716 118.934 65.2536C118.79 64.9175 118.646 64.581 118.503 64.2444C118.346 63.876 118.189 63.5079 118.031 63.14C117.866 62.7542 117.701 62.3681 117.536 61.9818C117.372 61.5964 117.208 61.2112 117.043 60.8262C117.032 60.8018 117.022 60.7774 117.011 60.7523C116.937 60.5795 116.863 60.4067 116.789 60.2339C116.704 60.0365 116.619 59.8391 116.535 59.6416C116.524 59.6172 116.514 59.5929 116.503 59.5677C116.338 59.184 116.175 58.8001 116.011 58.4159C115.822 57.971 115.632 57.5265 115.441 57.0821C115.422 57.0369 115.402 56.9917 115.383 56.9465C115.336 56.8363 115.288 56.7262 115.241 56.6163C115.217 56.5617 115.193 56.507 115.169 56.4523C115.153 56.4133 115.136 56.3744 115.119 56.3355C115.108 56.3119 115.098 56.2884 115.088 56.2641C115.079 56.2433 115.07 56.2225 115.06 56.201C115.041 56.1485 115.041 56.1485 115.041 56.0853Z" fill="white"/>
<path d="M164.003 76.1516C164.018 76.1516 164.034 76.1515 164.05 76.1515C164.103 76.1514 164.156 76.1515 164.208 76.1515C164.246 76.1515 164.285 76.1515 164.323 76.1514C164.429 76.1513 164.534 76.1513 164.64 76.1514C164.756 76.1514 164.871 76.1513 164.986 76.1512C165.189 76.1511 165.392 76.1511 165.595 76.1511C165.885 76.1511 166.175 76.151 166.465 76.1508C166.997 76.1506 167.529 76.1504 168.062 76.1504C168.587 76.1503 169.112 76.1502 169.637 76.15C169.671 76.15 169.704 76.15 169.738 76.1499C169.873 76.1499 170.008 76.1498 170.143 76.1498C171.779 76.1492 173.416 76.1489 175.053 76.1486C175.565 76.1486 176.076 76.1485 176.588 76.1484C176.758 76.1483 176.929 76.1483 177.099 76.1483C177.118 76.1483 177.136 76.1483 177.156 76.1483C179.078 76.1479 181.001 76.1476 184.919 76.1471C185.142 76.1471 185.366 76.1471 185.59 76.1471C185.62 76.147 185.62 76.1471 185.651 76.147C186.06 76.147 186.468 76.147 186.877 76.1469C186.98 76.1469 187.082 76.1469 187.185 76.1469C189.12 76.1467 191.056 76.1464 192.991 76.1458C193.012 76.1458 193.032 76.1458 193.053 76.1458C193.731 76.1456 194.408 76.1454 195.086 76.1451C195.698 76.1449 196.311 76.1447 196.923 76.1445C196.943 76.1445 196.963 76.1445 196.984 76.1445C198.243 76.1441 199.503 76.1439 200.762 76.1437C200.781 76.1437 200.801 76.1437 200.821 76.1437C201.675 76.1436 202.529 76.1436 203.383 76.1435C203.726 76.1435 204.07 76.1435 204.414 76.1435C204.47 76.1435 204.527 76.1435 204.584 76.1435C205.456 76.1434 206.328 76.1433 207.199 76.1429C207.218 76.1429 207.237 76.1429 207.256 76.1429C207.559 76.1428 207.862 76.1426 208.164 76.1425C209.023 76.1421 209.882 76.1417 210.74 76.1418C210.758 76.1418 210.775 76.1418 210.793 76.1418C211.173 76.1418 211.553 76.1418 211.933 76.1419C212.084 76.1419 212.236 76.142 212.387 76.142C212.404 76.142 212.42 76.142 212.437 76.142C212.962 76.1421 213.486 76.1418 214.011 76.1414C214.527 76.141 215.044 76.1409 215.56 76.1413C215.876 76.1415 216.193 76.1414 216.509 76.1409C216.709 76.1406 216.91 76.1406 217.11 76.141C217.224 76.1412 217.337 76.1413 217.451 76.1408C217.554 76.1405 217.657 76.1406 217.76 76.141C217.798 76.1411 217.835 76.141 217.872 76.1408C218.205 76.1384 218.205 76.1384 218.326 76.2307C218.42 76.3244 218.445 76.4006 218.452 76.5307C218.447 76.6642 218.405 76.7535 218.313 76.8492C218.193 76.9261 218.09 76.9361 217.949 76.9361C217.934 76.9361 217.918 76.9362 217.902 76.9362C217.85 76.9363 217.797 76.9362 217.745 76.9361C217.707 76.9362 217.669 76.9362 217.63 76.9362C217.525 76.9363 217.42 76.9363 217.314 76.9362C217.199 76.9362 217.084 76.9363 216.97 76.9364C216.767 76.9365 216.565 76.9365 216.363 76.9364C216.06 76.9364 215.757 76.9365 215.454 76.9366C214.938 76.9367 214.421 76.9368 213.905 76.9368C213.382 76.9368 212.859 76.9369 212.335 76.937C212.302 76.937 212.269 76.937 212.235 76.937C212.101 76.937 211.966 76.9371 211.832 76.9371C210.353 76.9374 208.873 76.9376 207.394 76.9377C207.366 76.9377 207.366 76.9377 207.337 76.9377C207.243 76.9377 207.148 76.9377 207.053 76.9377C206.26 76.9377 205.468 76.9378 204.675 76.9379C204.295 76.9379 203.915 76.938 203.536 76.938C203.517 76.938 203.498 76.938 203.479 76.938C202.57 76.9381 201.661 76.9382 200.753 76.9383C200.733 76.9383 200.714 76.9383 200.694 76.9383C199.459 76.9384 198.223 76.9384 196.988 76.9385C196.887 76.9385 196.785 76.9385 196.684 76.9385C196.522 76.9385 196.359 76.9385 196.197 76.9385C196.167 76.9385 196.167 76.9385 196.136 76.9385C196.095 76.9385 196.055 76.9385 196.014 76.9385C195.729 76.9385 195.443 76.9385 195.158 76.9385C195.056 76.9385 194.954 76.9385 194.852 76.9385C192.923 76.9386 190.995 76.9387 189.066 76.939C189.046 76.939 189.026 76.939 189.005 76.939C188.37 76.9391 187.736 76.9393 187.102 76.9394C186.451 76.9395 185.8 76.9396 185.149 76.9397C185.119 76.9397 185.119 76.9397 185.088 76.9397C183.833 76.94 182.579 76.9401 181.324 76.9402C181.304 76.9402 181.285 76.9402 181.265 76.9402C180.414 76.9402 179.563 76.9402 178.712 76.9403C178.37 76.9403 178.028 76.9403 177.685 76.9403C177.628 76.9403 177.572 76.9403 177.515 76.9403C176.646 76.9403 175.778 76.9403 174.909 76.9406C174.891 76.9406 174.872 76.9406 174.853 76.9406C174.551 76.9406 174.25 76.9407 173.948 76.9408C173.093 76.941 172.237 76.9412 171.382 76.9412C171.356 76.9412 171.356 76.9412 171.329 76.9411C170.951 76.9411 170.572 76.9411 170.194 76.941C170.043 76.941 169.892 76.941 169.741 76.941C169.716 76.941 169.716 76.941 169.691 76.941C169.168 76.9409 168.646 76.941 168.123 76.9413C167.608 76.9415 167.094 76.9416 166.58 76.9413C166.264 76.9412 165.949 76.9412 165.634 76.9415C165.434 76.9417 165.235 76.9417 165.035 76.9414C164.922 76.9413 164.809 76.9413 164.695 76.9415C164.593 76.9418 164.49 76.9417 164.387 76.9414C164.35 76.9414 164.313 76.9414 164.276 76.9416C163.86 76.9434 163.86 76.9434 163.721 76.8295C163.709 76.8151 163.698 76.8008 163.686 76.786C163.675 76.7717 163.663 76.7574 163.651 76.7426C163.586 76.6464 163.593 76.5397 163.602 76.428C163.64 76.3118 163.717 76.2463 163.813 76.1753C163.874 76.1446 163.936 76.1514 164.003 76.1516Z" fill="white"/>
<path d="M78.3362 76.1516C78.3517 76.1516 78.3673 76.1516 78.3833 76.1515C78.436 76.1514 78.4888 76.1515 78.5415 76.1516C78.5797 76.1515 78.6178 76.1515 78.656 76.1515C78.7619 76.1514 78.8678 76.1514 78.9737 76.1514C79.0889 76.1515 79.2042 76.1514 79.3194 76.1513C79.5225 76.1512 79.7256 76.1512 79.9288 76.1512C80.2186 76.1512 80.5084 76.1511 80.7982 76.151C81.3306 76.1508 81.8629 76.1507 82.3953 76.1506C82.9207 76.1506 83.4461 76.1505 83.9715 76.1504C84.0049 76.1503 84.0384 76.1503 84.0718 76.1503C84.2068 76.1503 84.3417 76.1503 84.4766 76.1502C86.0946 76.1498 87.7125 76.1495 89.3305 76.1494C89.8802 76.1493 90.43 76.1492 90.9797 76.1491C90.9984 76.1491 91.0171 76.1491 91.0364 76.1491C91.2067 76.1491 91.3769 76.1491 91.5472 76.1491C93.4711 76.1488 95.395 76.1485 99.3149 76.1482C99.498 76.1482 99.681 76.1482 99.8641 76.1482C99.9252 76.1482 99.9864 76.1482 100.048 76.1482C100.436 76.1481 100.824 76.1481 101.213 76.1481C101.315 76.1481 101.418 76.1481 101.52 76.1481C103.456 76.1479 105.392 76.1477 107.327 76.1473C107.358 76.1473 107.358 76.1473 107.389 76.1473C108.046 76.1471 108.704 76.1469 109.361 76.1468C109.994 76.1466 110.627 76.1464 111.259 76.1463C111.28 76.1463 111.3 76.1463 111.32 76.1463C112.58 76.1459 113.839 76.1457 115.099 76.1456C115.118 76.1456 115.138 76.1456 115.158 76.1456C116.012 76.1456 116.866 76.1455 117.72 76.1455C118.064 76.1455 118.407 76.1455 118.751 76.1455C118.808 76.1455 118.865 76.1455 118.922 76.1455C119.793 76.1454 120.665 76.1453 121.537 76.145C121.556 76.145 121.575 76.145 121.594 76.145C121.897 76.1449 122.199 76.1448 122.502 76.1447C123.361 76.1444 124.22 76.1441 125.078 76.1442C125.096 76.1442 125.113 76.1442 125.131 76.1442C125.511 76.1442 125.891 76.1442 126.271 76.1443C126.422 76.1443 126.574 76.1443 126.725 76.1444C126.742 76.1444 126.758 76.1444 126.775 76.1444C127.3 76.1444 127.825 76.1443 128.349 76.1439C128.866 76.1436 129.382 76.1435 129.898 76.1438C130.215 76.144 130.531 76.144 130.848 76.1435C131.048 76.1433 131.248 76.1433 131.448 76.1437C131.562 76.1438 131.676 76.1439 131.79 76.1435C131.893 76.1432 131.996 76.1433 132.099 76.1437C132.136 76.1438 132.173 76.1437 132.21 76.1435C132.261 76.1432 132.311 76.1434 132.361 76.1438C132.382 76.1435 132.382 76.1435 132.404 76.1431C132.523 76.1449 132.597 76.1908 132.68 76.2722C132.776 76.3918 132.787 76.4895 132.772 76.6386C132.738 76.7646 132.673 76.8291 132.562 76.8932C132.469 76.9356 132.384 76.9361 132.282 76.9361C132.267 76.9361 132.251 76.9362 132.235 76.9362C132.183 76.9363 132.13 76.9362 132.078 76.9361C132.04 76.9362 132.002 76.9362 131.964 76.9362C131.858 76.9363 131.753 76.9363 131.647 76.9362C131.532 76.9362 131.418 76.9363 131.303 76.9364C131.1 76.9365 130.898 76.9365 130.696 76.9364C130.393 76.9364 130.09 76.9365 129.787 76.9366C129.271 76.9367 128.755 76.9368 128.239 76.9368C127.715 76.9368 127.192 76.9369 126.668 76.937C126.635 76.937 126.602 76.937 126.568 76.937C126.434 76.937 126.3 76.9371 126.165 76.9371C124.686 76.9374 123.206 76.9376 121.727 76.9377C121.699 76.9377 121.699 76.9377 121.67 76.9377C121.576 76.9377 121.481 76.9377 121.386 76.9377C120.594 76.9377 119.801 76.9378 119.008 76.9379C118.628 76.9379 118.249 76.938 117.869 76.938C117.85 76.938 117.831 76.938 117.812 76.938C116.903 76.9381 115.995 76.9382 115.086 76.9383C115.067 76.9383 115.047 76.9383 115.027 76.9383C113.792 76.9384 112.557 76.9384 111.321 76.9385C111.22 76.9385 111.119 76.9385 111.017 76.9385C110.855 76.9385 110.693 76.9385 110.53 76.9385C110.5 76.9385 110.5 76.9385 110.469 76.9385C110.428 76.9385 110.388 76.9385 110.347 76.9385C110.062 76.9385 109.776 76.9385 109.491 76.9385C109.389 76.9385 109.287 76.9385 109.185 76.9385C107.256 76.9386 105.328 76.9387 103.4 76.939C103.379 76.939 103.359 76.939 103.338 76.939C102.704 76.9391 102.069 76.9393 101.435 76.9394C100.784 76.9395 100.133 76.9396 99.4822 76.9397C99.4522 76.9397 99.4522 76.9397 99.4215 76.9397C98.1667 76.94 96.9118 76.9401 95.657 76.9402C95.6376 76.9402 95.6182 76.9402 95.5983 76.9402C94.7473 76.9402 93.8964 76.9402 93.0454 76.9403C92.7031 76.9403 92.3608 76.9403 92.0185 76.9403C91.9617 76.9403 91.905 76.9403 91.8482 76.9403C90.9797 76.9403 90.1112 76.9403 89.2426 76.9406C89.2239 76.9406 89.2052 76.9406 89.1858 76.9406C88.8844 76.9406 88.5829 76.9407 88.2815 76.9408C87.4259 76.941 86.5704 76.9412 85.7148 76.9412C85.6888 76.9412 85.6888 76.9412 85.6623 76.9411C85.2838 76.9411 84.9053 76.9411 84.5268 76.941C84.3759 76.941 84.225 76.941 84.074 76.941C84.0493 76.941 84.0493 76.941 84.0241 76.941C83.5015 76.9409 82.9788 76.941 82.4561 76.9413C81.9416 76.9415 81.4272 76.9416 80.9127 76.9413C80.5976 76.9412 80.2824 76.9412 79.9673 76.9415C79.7677 76.9417 79.5682 76.9417 79.3686 76.9414C79.2553 76.9413 79.1419 76.9413 79.0286 76.9415C78.9259 76.9418 78.8231 76.9417 78.7203 76.9414C78.6834 76.9414 78.6465 76.9414 78.6096 76.9416C78.1947 76.9433 78.1947 76.9433 78.0433 76.8216C77.9417 76.6931 77.9167 76.5891 77.9354 76.428C77.9734 76.3118 78.0501 76.2463 78.146 76.1753C78.2074 76.1446 78.2689 76.1514 78.3362 76.1516Z" fill="white"/>
<path d="M159.006 75.8002C159.328 76.0773 159.464 76.4773 159.496 76.8913C159.498 76.9797 159.498 77.068 159.498 77.1564C159.498 77.1823 159.498 77.2082 159.498 77.2349C159.498 77.3054 159.498 77.3759 159.498 77.4463C159.498 77.5202 159.498 77.5941 159.498 77.6679C159.498 77.8075 159.497 77.9472 159.497 78.0868C159.497 78.2458 159.497 78.4049 159.497 78.5639C159.497 78.8908 159.496 79.2178 159.496 79.5447C159.259 79.5447 159.023 79.5447 158.78 79.5447C158.773 79.3918 158.766 79.239 158.759 79.0814C158.733 79.1092 158.707 79.137 158.681 79.1657C158.353 79.4908 157.929 79.5827 157.479 79.5934C157.039 79.5913 156.589 79.4801 156.265 79.167C156.043 78.9317 155.949 78.6532 155.953 78.3306C155.97 78.0608 156.055 77.7794 156.253 77.5863C156.774 77.1505 157.424 77.1792 158.066 77.1833C158.142 77.1837 158.218 77.1839 158.294 77.1841C158.442 77.1845 158.59 77.1853 158.738 77.1862C158.735 77.1361 158.732 77.086 158.729 77.0359C158.728 77.0219 158.727 77.0079 158.726 76.9934C158.71 76.7291 158.623 76.5013 158.428 76.3182C158.146 76.0976 157.748 76.0805 157.405 76.122C157.068 76.1705 156.772 76.2914 156.484 76.4702C156.449 76.4913 156.414 76.5123 156.379 76.5333C156.334 76.4549 156.288 76.3764 156.243 76.2977C156.231 76.2755 156.218 76.2533 156.204 76.2304C156.186 76.1981 156.186 76.1981 156.167 76.1652C156.156 76.1455 156.144 76.1257 156.133 76.1054C156.106 76.0506 156.093 76.0038 156.084 75.9437C156.892 75.399 158.174 75.16 159.006 75.8002ZM156.846 77.9614C156.732 78.1023 156.683 78.2543 156.699 78.4348C156.73 78.6042 156.814 78.7364 156.949 78.8432C157.215 79.0229 157.574 79.0376 157.883 78.9827C158.193 78.9168 158.462 78.7622 158.643 78.4957C158.661 78.4667 158.679 78.4374 158.695 78.4076C158.707 78.3896 158.707 78.3896 158.718 78.3713C158.744 78.3075 158.742 78.255 158.742 78.1861C158.742 78.1598 158.741 78.1335 158.741 78.1063C158.741 78.0789 158.741 78.0515 158.74 78.0232C158.74 77.9955 158.74 77.9678 158.74 77.9392C158.739 77.8707 158.738 77.8022 158.738 77.7337C158.573 77.7322 158.409 77.7311 158.244 77.7304C158.168 77.7301 158.092 77.7296 158.015 77.7289C157.383 77.6917 157.383 77.6917 156.846 77.9614Z" fill="white"/>
<path d="M144.199 75.8424C144.316 75.9528 144.403 76.0773 144.481 76.2175C144.495 76.2436 144.495 76.2436 144.51 76.2704C144.672 76.5903 144.695 76.9623 144.694 77.3142C144.694 77.3385 144.694 77.3628 144.694 77.3878C144.694 77.4672 144.694 77.5466 144.693 77.626C144.693 77.6814 144.693 77.7368 144.693 77.7921C144.693 77.9225 144.693 78.0529 144.693 78.1832C144.693 78.3318 144.693 78.4803 144.692 78.6289C144.692 78.9342 144.692 79.2395 144.691 79.5447C144.441 79.5447 144.191 79.5447 143.933 79.5447C143.933 79.4712 143.933 79.3977 143.933 79.322C143.932 79.078 143.931 78.8341 143.929 78.5902C143.929 78.4424 143.928 78.2947 143.928 78.1469C143.927 78.0041 143.927 77.8613 143.926 77.7184C143.925 77.6642 143.925 77.6099 143.925 77.5556C143.925 76.9331 143.925 76.9331 143.632 76.3984C143.399 76.1814 143.103 76.125 142.793 76.1289C142.446 76.1472 142.112 76.2523 141.872 76.516C141.568 76.9217 141.593 77.4104 141.589 77.8913C141.589 77.9391 141.588 77.9869 141.588 78.0347C141.587 78.1597 141.586 78.2848 141.585 78.4098C141.584 78.5377 141.582 78.6656 141.581 78.7935C141.579 79.0439 141.577 79.2943 141.575 79.5447C141.332 79.5447 141.088 79.5447 140.838 79.5447C140.838 78.2035 140.838 76.8623 140.838 75.4804C141.074 75.4804 141.31 75.4804 141.554 75.4804C141.561 75.6611 141.568 75.8418 141.575 76.0279C141.624 75.9758 141.624 75.9758 141.673 75.9226C142.313 75.2722 143.514 75.2693 144.199 75.8424Z" fill="white"/>
<path d="M149.858 74.0201C149.869 74.0295 149.881 74.0388 149.893 74.0484C149.879 74.1267 149.858 74.1962 149.828 74.2699C149.82 74.2915 149.811 74.313 149.803 74.3351C149.794 74.3574 149.785 74.3796 149.776 74.4025C149.762 74.4364 149.762 74.4364 149.749 74.471C149.727 74.5267 149.705 74.5824 149.682 74.6381C149.666 74.6294 149.649 74.6208 149.632 74.6119C149.61 74.6006 149.588 74.5892 149.565 74.5775C149.543 74.5663 149.522 74.555 149.499 74.5435C149.368 74.4837 149.25 74.4614 149.107 74.4617C149.092 74.4617 149.076 74.4617 149.06 74.4617C148.931 74.4644 148.828 74.4923 148.714 74.5538C148.699 74.56 148.684 74.5661 148.669 74.5724C148.619 74.6021 148.609 74.6271 148.587 74.6802C148.576 74.7033 148.576 74.7033 148.565 74.7269C148.558 74.7428 148.551 74.7586 148.544 74.7749C148.537 74.7908 148.529 74.8066 148.522 74.823C148.436 75.0351 148.471 75.2379 148.461 75.4804C148.85 75.4804 149.239 75.4804 149.64 75.4804C149.64 75.6819 149.64 75.8835 149.64 76.0911C149.258 76.0911 148.876 76.0911 148.482 76.0911C148.482 76.195 148.482 76.2989 148.482 76.4059C148.483 76.7481 148.483 77.0904 148.483 77.4327C148.483 77.6403 148.483 77.8479 148.484 78.0555C148.484 78.2364 148.484 78.4173 148.484 78.5982C148.484 78.6941 148.484 78.7899 148.484 78.8858C148.484 78.9759 148.484 79.066 148.484 79.1561C148.484 79.1892 148.484 79.2224 148.485 79.2556C148.485 79.3007 148.485 79.3457 148.485 79.3908C148.485 79.4161 148.485 79.4414 148.485 79.4675C148.482 79.5237 148.482 79.5237 148.461 79.5447C148.218 79.5447 147.974 79.5447 147.724 79.5447C147.724 78.405 147.724 77.2653 147.724 76.0911C147.495 76.0911 147.265 76.0911 147.029 76.0911C147.029 75.8896 147.029 75.688 147.029 75.4804C147.258 75.4804 147.488 75.4804 147.724 75.4804C147.723 75.3961 147.721 75.3119 147.72 75.2251C147.719 75.0206 147.724 74.8342 147.787 74.6381C147.793 74.6195 147.798 74.601 147.804 74.5819C147.898 74.3112 148.101 74.091 148.352 73.9576C148.786 73.7538 149.45 73.7299 149.858 74.0201Z" fill="white"/>
<path d="M136.984 74.1958C137.241 74.1958 137.498 74.1958 137.763 74.1958C137.763 75.961 137.763 77.7261 137.763 79.5447C137.506 79.5447 137.249 79.5447 136.984 79.5447C136.984 77.7796 136.984 76.0145 136.984 74.1958Z" fill="white"/>
<path d="M154.084 75.4383C154.084 75.6815 154.084 75.9247 154.084 76.1753C153.993 76.1753 153.903 76.1753 153.81 76.1753C153.481 76.2016 153.179 76.3193 152.949 76.5611C152.731 76.8379 152.67 77.1727 152.668 77.515C152.668 77.537 152.668 77.559 152.668 77.5817C152.667 77.654 152.667 77.7264 152.666 77.7988C152.666 77.8491 152.665 77.8994 152.665 77.9497C152.664 78.0818 152.662 78.214 152.661 78.3461C152.66 78.4811 152.659 78.616 152.658 78.751C152.656 79.0155 152.654 79.2801 152.652 79.5447C152.547 79.5453 152.442 79.5456 152.338 79.5459C152.302 79.546 152.267 79.5461 152.231 79.5463C152.18 79.5466 152.129 79.5467 152.078 79.5468C152.054 79.547 152.054 79.547 152.029 79.5471C151.991 79.5471 151.953 79.546 151.915 79.5447C151.879 79.5087 151.891 79.4632 151.891 79.4151C151.891 79.3995 151.891 79.3838 151.891 79.3676C151.891 79.3511 151.891 79.3346 151.891 79.3176C151.891 79.2617 151.891 79.2059 151.891 79.1501C151.891 79.1103 151.891 79.0704 151.891 79.0306C151.891 78.9221 151.891 78.8136 151.891 78.7051C151.891 78.5918 151.892 78.4786 151.892 78.3653C151.892 78.1506 151.892 77.936 151.892 77.7214C151.892 77.4771 151.892 77.2328 151.892 76.9885C151.893 76.4858 151.893 75.9831 151.893 75.4804C152.137 75.4804 152.38 75.4804 152.631 75.4804C152.637 75.675 152.644 75.8696 152.652 76.07C152.7 76.0075 152.749 75.945 152.799 75.8805C153.138 75.5357 153.617 75.4383 154.084 75.4383Z" fill="white"/>
</g>
<defs>
<filter id="filter0_dddd_420_7833" x="0.454525" y="0.00603867" width="253.661" height="114.988" filterUnits="userSpaceOnUse" color-interpolation-filters="sRGB">
<feFlood flood-opacity="0" result="BackgroundImageFix"/>
<feColorMatrix in="SourceAlpha" type="matrix" values="0 0 0 0 0 0 0 0 0 0 0 0 0 0 0 0 0 0 127 0" result="hardAlpha"/>
<feOffset/>
<feGaussianBlur stdDeviation="5.39103"/>
<feComposite in2="hardAlpha" operator="out"/>
<feColorMatrix type="matrix" values="0 0 0 0 1 0 0 0 0 1 0 0 0 0 1 0 0 0 0.5 0"/>
<feBlend mode="normal" in2="BackgroundImageFix" result="effect1_dropShadow_420_7833"/>
<feColorMatrix in="SourceAlpha" type="matrix" values="0 0 0 0 0 0 0 0 0 0 0 0 0 0 0 0 0 0 127 0" result="hardAlpha"/>
<feOffset/>
<feGaussianBlur stdDeviation="16.847"/>
<feComposite in2="hardAlpha" operator="out"/>
<feColorMatrix type="matrix" values="0 0 0 0 1 0 0 0 0 1 0 0 0 0 1 0 0 0 0.5 0"/>
<feBlend mode="normal" in2="effect1_dropShadow_420_7833" result="effect2_dropShadow_420_7833"/>
<feColorMatrix in="SourceAlpha" type="matrix" values="0 0 0 0 0 0 0 0 0 0 0 0 0 0 0 0 0 0 127 0" result="hardAlpha"/>
<feOffset dx="-0.404327" dy="-0.404327"/>
<feGaussianBlur stdDeviation="2.02163"/>
<feComposite in2="hardAlpha" operator="out"/>
<feColorMatrix type="matrix" values="0 0 0 0 1 0 0 0 0 0 0 0 0 0 0 0 0 0 0.25 0"/>
<feBlend mode="normal" in2="effect2_dropShadow_420_7833" result="effect3_dropShadow_420_7833"/>
<feColorMatrix in="SourceAlpha" type="matrix" values="0 0 0 0 0 0 0 0 0 0 0 0 0 0 0 0 0 0 127 0" result="hardAlpha"/>
<feOffset dx="0.404327" dy="0.404327"/>
<feGaussianBlur stdDeviation="2.02163"/>
<feComposite in2="hardAlpha" operator="out"/>
<feColorMatrix type="matrix" values="0 0 0 0 0 0 0 0 0 0.0333333 0 0 0 0 1 0 0 0 0.25 0"/>
<feBlend mode="normal" in2="effect3_dropShadow_420_7833" result="effect4_dropShadow_420_7833"/>
<feBlend mode="normal" in="SourceGraphic" in2="effect4_dropShadow_420_7833" result="shape"/>
</filter>
</defs>
</svg>
